<svg width="18" height="18" viewBox="0 0 18 18" fill="none" xmlns="http://www.w3.org/2000/svg">
<path fill-rule="evenodd" clip-rule="evenodd" d="M4 2C4 0.89543 4.89543 0 6 0H13C14.1046 0 15 0.895431 15 2V16C15 17.1046 14.1046 18 13 18H6C4.89543 18 4 17.1046 4 16V2ZM5 2C5 1.44772 5.44772 1 6 1H13C13.5523 1 14 1.44772 14 2V14H5V2ZM13 17C13.5523 17 14 16.5523 14 16V15H5V16C5 16.5523 5.44772 17 6 17H13Z" fill="black"/>
<path d="M9 16C9 15.7239 9.22386 15.5 9.5 15.5C9.77614 15.5 10 15.7239 10 16C10 16.2761 9.77614 16.5 9.5 16.5C9.22386 16.5 9 16.2761 9 16Z" fill="black"/>
</svg>
