<svg xmlns="http://www.w3.org/2000/svg" version="1.1" xmlns:xlink="http://www.w3.org/1999/xlink" xmlns:svgjs="http://svgjs.com/svgjs" width="512" height="512" x="0" y="0" viewBox="0 0 24 24" style="enable-background:new 0 0 512 512" xml:space="preserve" class="">
    <g>
        <g xmlns="http://www.w3.org/2000/svg" transform="translate(-240 -108)">
            <path d="m259 114c0-2.209-1.791-4-4-4-1.832 0-4.168 0-6 0-2.209 0-4 1.791-4 4v12c0 2.209 1.791 4 4 4h6c2.209 0 4-1.791 4-4zm-2 0v12c0 1.105-.895 2-2 2h-6c-1.105 0-2-.895-2-2v-12c0-1.105.895-2 2-2h6c1.105 0 2 .895 2 2zm-6 12h2v-2h-2zm-1-10h4v-2h-4z" fill="#000000" data-original="#000000" class=""></path>
        </g>
    </g>
</svg>