<svg xmlns="http://www.w3.org/2000/svg" version="1.1" xmlns:xlink="http://www.w3.org/1999/xlink" xmlns:svgjs="http://svgjs.com/svgjs" width="512" height="512" x="0" y="0" viewBox="0 0 24 24" style="enable-background:new 0 0 512 512" xml:space="preserve" class="">
    <g>
        <g xmlns="http://www.w3.org/2000/svg" transform="translate(-416 -108)">
            <path d="m424.719 126-.5 2h-2.219v2h12v-2h-2.219l-.5-2h2.719c2.209 0 4-1.791 4-4v-7c0-2.209-1.791-4-4-4h-12c-2.209 0-4 1.791-4 4v7c0 2.209 1.791 4 4 4zm1.562 2h3.438l-.5-2h-2.438zm9.719-13v7c0 1.105-.895 2-2 2h-12c-1.105 0-2-.895-2-2v-7c0-1.105.895-2 2-2h12c1.105 0 2 .895 2 2z" fill="#000000" data-original="#000000" class=""></path>
        </g>
    </g>
</svg>