<svg id="Horizon" data-name="Horizon" xmlns="http://www.w3.org/2000/svg" viewBox="0 0 512 512">
	<!-- Converted By ToxesFoxes -->
	<!-- vk.com/toxesfoxes -->
	<defs>
		<style>.cls-1 {fill: #fff;}.cls-2 {fill: #c5360f;}.cls-3 {fill: #cecd00;}.cls-4 {fill: #eb6503;}.cls-5 {fill: #fdfb00;}.cls-6 {fill: #e8a400;}.cls-7 {fill: #7f1b0f;}</style>
	</defs>
	<path class="cls-1"
		d="M241.74,7.56q-3.57.21-7.11.51L24.21,165.28c-.86,2.19-1.69,4.41-2.49,6.64q16.19-12.06,32.35-24.15Z" />
	<path class="cls-1" d="M294.67,501.86q4-.63,7.91-1.38L483.8,356.28c1.08-2.43,2.11-4.89,3.11-7.36q-33.53,26.64-67,53.3Z" />
	<path class="cls-1" d="M256,504.85c1.52,0,3,0,4.54-.05L393.8,402.37l101.56-78.05c.57-2,1.12-4,1.64-6.05Q375.54,411.5,254.2,504.83Z" />
	<path class="cls-1" d="M341.85,201.43q59.22-43.77,118.43-87.56c-.72-1-1.45-2.07-2.19-3.1Q390.94,160.35,323.83,210L191,308.11q-66.59,49.22-133.17,98.44c.78,1,1.54,2,2.33,3l95-70.19Z" />
	<path class="cls-1" d="M185.64,179.8Q205.11,165.9,224.57,152c2.48-1.77,5.43-2.62,8.2-3.8L419.46,68.37c-1.07-.94-2.16-1.86-3.25-2.78l-174.9,74.74-.13-.24,14.87-10.63q62.2-44.49,124.4-89c-1.21-.7-2.43-1.38-3.66-2.06L225.26,146.75c-2.91,2.09-6.32,3.13-9.55,4.51q-104,44.49-208,88.93c-.09,1.43-.17,2.86-.24,4.3q15.84-6.8,31.68-13.56,83.7-35.77,167.42-71.53c.41-.18.79-.52,1.32-.38-.2.49-.67.66-1,.92q-58.68,41.94-117.35,83.87Q50.24,271.86,11,300c.25,1.39.52,2.77.79,4.15l21.31-15.24Z" />
	<path class="cls-1" d="M480.08,230.18,241.94,383.67q-61.78,39.82-123.58,79.67c1.17.77,2.33,1.55,3.5,2.3L480.65,234.39a1.7,1.7,0,0,1-.9,1.42Q447.49,262.44,415.2,289l-197.73,163q-23.06,19-46.09,38c1.4.51,2.8,1,4.21,1.49L502.53,222q-.39-2.9-.85-5.77Z" />
	<path class="cls-1" d="M276.66,8q-2.82-.24-5.65-.4L10.29,216.41c-.29,1.85-.56,3.7-.82,5.57Q139.92,117.54,270.36,13.06Z" />
	<path class="cls-2" d="M254.2,504.83Q375.57,411.52,497,318.27A250.59,250.59,0,0,0,502.53,222L175.59,491.57A248.44,248.44,0,0,0,254.2,504.83Z" />
	<path class="cls-3" d="M256,7.15c-4.79,0-9.54.15-14.26.41L54.07,147.77Q37.9,159.84,21.72,171.92a247.74,247.74,0,0,0-11.43,44.49L271,7.61Q263.56,7.16,256,7.15Z" />
	<path class="cls-4" d="M206.81,159.94c.36-.26.83-.43,1-.92-.53-.14-.91.2-1.32.38Q122.81,195.15,39.1,230.93,23.26,237.7,7.42,244.49c-.17,3.81-.27,7.65-.27,11.51A249.74,249.74,0,0,0,11,300q39.21-28.08,78.44-56.15Q148.13,201.86,206.81,159.94Z" />
	<path class="cls-3" d="M260.54,504.8a250.83,250.83,0,0,0,34.13-2.94l125.21-99.64q33.51-26.66,67-53.3a248.42,248.42,0,0,0,8.45-24.6L393.8,402.37Z" />
	<path class="cls-5" d="M323.83,210Q391,160.35,458.09,110.77a250.41,250.41,0,0,0-38.63-42.4L232.77,148.19c-2.77,1.18-5.72,2-8.2,3.8q-19.48,13.88-38.93,27.81L33.12,288.87,11.81,304.11a247.81,247.81,0,0,0,46,102.44Q124.42,357.31,191,308.11Z" />
	<path class="cls-6" d="M480.08,230.18l21.6-13.93a247.45,247.45,0,0,0-41.4-102.38q-59.19,43.82-118.43,87.56l-186.71,138-95,70.19a250.41,250.41,0,0,0,58.18,53.75q61.79-39.85,123.58-79.67Z" />
	<path class="cls-2" d="M225.26,146.75,376.79,38.4A247.15,247.15,0,0,0,276.66,8l-6.3,5.05Q139.92,117.52,9.47,222q-1.23,9-1.81,18.21,104-44.46,208.05-88.93C218.94,149.88,222.35,148.84,225.26,146.75Z" />
	<path class="cls-4" d="M415.2,289q32.28-26.61,64.55-53.23a1.7,1.7,0,0,0,.9-1.42L121.86,465.64a247.65,247.65,0,0,0,49.52,24.44q23-19,46.09-38Z" />
	<path class="cls-7" d="M24.21,165.28,234.63,8.07C138.52,16.24,58,79,24.21,165.28Z" />
	<path class="cls-7" d="M483.8,356.28,302.58,500.48A249.2,249.2,0,0,0,483.8,356.28Z" />
	<path class="cls-4" d="M241.18,140.09l.13.24,174.9-74.74a249.75,249.75,0,0,0-35.76-25.13q-62.19,44.52-124.4,89Z" />
</svg>