<svg width="18" height="18" viewBox="0 0 18 18" fill="none" xmlns="http://www.w3.org/2000/svg">
<path fill-rule="evenodd" clip-rule="evenodd" d="M6 9C6 7.34315 7.34315 6 9 6C10.6569 6 12 7.34315 12 9C12 10.6569 10.6569 12 9 12C7.34315 12 6 10.6569 6 9ZM9 11C7.89543 11 7 10.1046 7 9C7 7.89543 7.89543 7 9 7C10.1046 7 11 7.89543 11 9C11 10.1046 10.1046 11 9 11Z" fill="black"/>
<path fill-rule="evenodd" clip-rule="evenodd" d="M8.50004 0C7.67161 0 7.00004 0.671573 7.00004 1.5V1.54415C7.00004 1.98656 6.70613 2.36963 6.29805 2.54053C5.74518 2.77207 5.22833 3.07252 4.75823 3.43114C4.40657 3.6994 3.92799 3.76223 3.54495 3.54108L3.50489 3.51795C2.78745 3.10374 1.87006 3.34955 1.45585 4.06699L0.955851 4.93302C0.541637 5.65046 0.78745 6.56784 1.50489 6.98206L1.54415 7.00472C1.9269 7.2257 2.11181 7.67109 2.05614 8.10952C2.01912 8.40113 2.00004 8.69834 2.00004 9C2.00004 9.30167 2.01912 9.59887 2.05615 9.89048C2.11181 10.3289 1.9269 10.7743 1.54415 10.9953L1.50489 11.018C0.787451 11.4322 0.541638 12.3496 0.955851 13.067L1.45585 13.933C1.87006 14.6505 2.78745 14.8963 3.50489 14.4821L3.54496 14.4589C3.928 14.2378 4.40658 14.3006 4.75824 14.5689C5.22833 14.9275 5.74518 15.2279 6.29805 15.4595C6.70613 15.6304 7.00004 16.0134 7.00004 16.4559V16.5C7.00004 17.3284 7.67161 18 8.50004 18H9.50004C10.3285 18 11 17.3284 11 16.5V16.4559C11 16.0134 11.2939 15.6304 11.702 15.4595C12.2549 15.2279 12.7718 14.9275 13.2419 14.5688C13.5935 14.3006 14.0721 14.2377 14.4552 14.4589L14.4953 14.4821C15.2127 14.8963 16.1301 14.6505 16.5443 13.933L17.0443 13.067C17.4585 12.3496 17.2127 11.4322 16.4953 11.018L16.4559 10.9952C16.0732 10.7743 15.8883 10.3289 15.9439 9.89045C15.981 9.59885 16 9.30165 16 9C16 8.69835 15.981 8.40116 15.9439 8.10956C15.8883 7.67113 16.0732 7.22574 16.4559 7.00477L16.4953 6.98206C17.2127 6.56784 17.4585 5.65046 17.0443 4.93302L16.5443 4.06699C16.1301 3.34955 15.2127 3.10374 14.4953 3.51796L14.4552 3.54111C14.0721 3.76226 13.5935 3.69943 13.2419 3.43116C12.7718 3.07253 12.2549 2.77207 11.702 2.54053C11.2939 2.36963 11 1.98656 11 1.54415V1.5C11 0.671573 10.3285 0 9.50004 0H8.50004ZM10 2C10 1.44772 9.55215 1 8.99986 1C8.99129 1 8.98275 1.00011 8.97423 1.00033C8.43379 1.01393 7.99986 1.45629 7.99986 2V2.23681C7.99986 2.72523 7.64342 3.13348 7.17802 3.28165C6.34451 3.54699 5.59003 3.98953 4.95885 4.56499C4.59839 4.89364 4.06727 4.99739 3.64485 4.75347L3.4379 4.63398C3.36033 4.58919 3.27925 4.55598 3.19667 4.53381C2.76999 4.41914 2.30304 4.59915 2.07164 4.99994C1.7955 5.47823 1.95937 6.08982 2.43767 6.36597L2.64307 6.48455C3.06572 6.72857 3.24121 7.24078 3.13738 7.71764C3.04743 8.13081 3.00004 8.55987 3.00004 9C3.00004 9.4401 3.04742 9.86913 3.13737 10.2823C3.24118 10.7591 3.06569 11.2713 2.64304 11.5153L2.43767 11.6339C1.95937 11.9101 1.7955 12.5216 2.07164 12.9999C2.2092 13.2382 2.42998 13.3984 2.67607 13.4651C2.92407 13.5324 3.19778 13.5047 3.4379 13.366L3.49969 13.3302L3.64479 13.2464C4.06721 13.0025 4.59831 13.1063 4.95875 13.4349C5.58995 14.0104 6.34446 14.453 7.17802 14.7184C7.64342 14.8665 7.99986 15.2748 7.99986 15.7632V16C7.99986 16.5523 8.44775 17 9.00004 17C9.55233 17 10 16.5523 10 16L9.99986 15.9291V15.7633C9.99986 15.2749 10.3563 14.8666 10.8218 14.7184C11.6554 14.4531 12.41 14.0105 13.0412 13.435C13.4016 13.1064 13.9327 13.0026 14.3551 13.2465L14.562 13.366C14.6396 13.4108 14.7207 13.444 14.8033 13.4661C15.2299 13.5808 15.6969 13.4008 15.9283 13C16.2044 12.5217 16.0406 11.9101 15.5623 11.634L15.357 11.5155C14.9343 11.2715 14.7588 10.7593 14.8627 10.2824C14.9526 9.86924 15 9.44016 15 9C15 8.55986 14.9526 8.1308 14.8627 7.71762C14.7589 7.24069 14.9344 6.72839 15.3572 6.48441L15.5623 6.36603C16.0406 6.08989 16.2044 5.4783 15.9283 5.00001C15.7907 4.76176 15.5699 4.60152 15.3239 4.53483C15.0759 4.46755 14.8021 4.49528 14.562 4.63392L14.3551 4.75341C13.9327 4.99728 13.4016 4.89353 13.0411 4.56492C12.4099 3.98946 11.6554 3.54693 10.8219 3.2816C10.3564 3.13342 9.99993 2.72506 10 2.23655L10 2Z" fill="black"/>
</svg>
