<svg width="18" height="18" viewBox="0 0 18 18" fill="none" xmlns="http://www.w3.org/2000/svg">
<path d="M8.5 0.5C8.5 0.223858 8.72386 0 9 0C9.27614 0 9.5 0.223858 9.5 0.5V1.5C9.5 1.77614 9.27614 2 9 2C8.72386 2 8.5 1.77614 8.5 1.5V0.5Z" fill="black"/>
<path d="M8.5 16.5C8.5 16.2239 8.72386 16 9 16C9.27614 16 9.5 16.2239 9.5 16.5V17.5C9.5 17.7761 9.27614 18 9 18C8.72386 18 8.5 17.7761 8.5 17.5V16.5Z" fill="black"/>
<path d="M17.5 8.5C17.7761 8.5 18 8.72386 18 9C18 9.27614 17.7761 9.5 17.5 9.5H16.5C16.2239 9.5 16 9.27614 16 9C16 8.72386 16.2239 8.5 16.5 8.5H17.5Z" fill="black"/>
<path d="M1.5 8.5C1.77614 8.5 2 8.72386 2 9C2 9.27614 1.77614 9.5 1.5 9.5H0.5C0.223858 9.5 0 9.27614 0 9C0 8.72386 0.223858 8.5 0.5 8.5H1.5Z" fill="black"/>
<path d="M15.364 14.6568C15.5592 14.8521 15.5592 15.1687 15.364 15.3639C15.1687 15.5592 14.8521 15.5592 14.6569 15.3639L13.9498 14.6568C13.7545 14.4616 13.7545 14.145 13.9498 13.9497C14.145 13.7545 14.4616 13.7545 14.6569 13.9497L15.364 14.6568Z" fill="black"/>
<path d="M4.05027 3.34311C4.24553 3.53838 4.24553 3.85496 4.05027 4.05022C3.85501 4.24548 3.53842 4.24548 3.34316 4.05022L2.63605 3.34311C2.44079 3.14785 2.44079 2.83127 2.63605 2.63601C2.83132 2.44075 3.1479 2.44075 3.34316 2.63601L4.05027 3.34311Z" fill="black"/>
<path d="M3.34306 15.364C3.14779 15.5592 2.83121 15.5592 2.63595 15.364C2.44069 15.1687 2.44069 14.8521 2.63595 14.6569L3.34306 13.9498C3.53832 13.7545 3.8549 13.7545 4.05016 13.9498C4.24542 14.145 4.24542 14.4616 4.05016 14.6569L3.34306 15.364Z" fill="black"/>
<path d="M14.6568 4.05027C14.4615 4.24553 14.1449 4.24553 13.9497 4.05027C13.7544 3.855 13.7544 3.53842 13.9497 3.34316L14.6568 2.63605C14.852 2.44079 15.1686 2.44079 15.3639 2.63605C15.5591 2.83132 15.5591 3.1479 15.3639 3.34316L14.6568 4.05027Z" fill="black"/>
<path fill-rule="evenodd" clip-rule="evenodd" d="M5 9C5 6.79086 6.79086 5 9 5C11.2091 5 13 6.79086 13 9C13 11.2091 11.2091 13 9 13C6.79086 13 5 11.2091 5 9ZM9 12C7.34315 12 6 10.6569 6 9C6 7.34315 7.34315 6 9 6C10.6569 6 12 7.34315 12 9C12 10.6569 10.6569 12 9 12Z" fill="black"/>
</svg>
